# xmcd
#
# Track frame offsets: 
#        150
#        19212
#        40952
#        68183
#        89695
#        114306
#        135224
#        156760
#        171572
#
# Disc length: 2665 seconds
#
# Revision: 0
# Processed by: cddbd v1.5.2PL0 Copyright (c) Steve Scherf et al.
# Submitted via: ExactAudioCopyFreeDBPlugin 1.0
#
DISCID=750a6709
DTITLE=Paul Orta and Tonky Blues Band - Hard Times Blues
DYEAR=2015
DGENRE=Blues
TTITLE0=Back To The Chicken Shack
TTITLE1=Take Out Some Insurance
TTITLE2=Hard Hearted Woman
TTITLE3=Babe
TTITLE4=Shake, Rattle And Roll
TTITLE5=Hard Time Blues
TTITLE6=Everything Gonna Be Alright
TTITLE7=Texas Gulf Fiesta
TTITLE8=One Way Out
EXTD=
EXTT0=
EXTT1=
EXTT2=
EXTT3=
EXTT4=
EXTT5=
EXTT6=
EXTT7=
EXTT8=
PLAYORDER=
